<svg xmlns="http://www.w3.org/2000/svg" xmlns:xlink="http://www.w3.org/1999/xlink" viewBox="0 0 95 118.75"><defs><style>.cls-1{fill:url(#Degradado_sin_nombre_11);}</style><linearGradient id="Degradado_sin_nombre_11" x1="16.35" y1="88.91" x2="78.68" y2="26.58" gradientUnits="userSpaceOnUse"><stop offset="0" stop-color="#5d9ba8"/><stop offset="0.22" stop-color="#5d9ba8" stop-opacity="0.98"/><stop offset="0.44" stop-color="#5d9ba8" stop-opacity="0.9"/><stop offset="0.66" stop-color="#5d9ba8" stop-opacity="0.78"/><stop offset="0.87" stop-color="#5d9ba8" stop-opacity="0.62"/><stop offset="1" stop-color="#5d9ba8" stop-opacity="0.5"/></linearGradient></defs><title>SGI</title><g id="Capa_2" data-name="Capa 2"><path class="cls-1" d="M47.51,13.68A44.07,44.07,0,1,0,91.57,57.75,43.8,43.8,0,0,0,47.51,13.68Zm-17.69,66A80.91,80.91,0,0,0,57.58,81a1.47,1.47,0,0,0-.36-2.92,76.88,76.88,0,0,1-28.36-1.7,76.8,76.8,0,0,1,0-37.27,77,77,0,0,1,37.28,0c3.93,14.9,3,34.63-4.1,48.08C52.22,105.87,36.87,101.29,29.82,79.65ZM69.41,40.07c8.49,2.76,19.23,8.75,19.23,17.68,0,3.71-2,7.38-5.8,10.61a39.34,39.34,0,0,1-13.43,7.06A80.47,80.47,0,0,0,69.41,40.07Zm17.9,7.33c-4.63-5.28-12.06-8.72-18.78-10.68a58.09,58.09,0,0,0-2-5.86A1.47,1.47,0,0,0,63.76,32c.52,1.24,1,2.53,1.42,3.85a80.52,80.52,0,0,0-35.36,0c2.77-8.49,8.76-19.22,17.69-19.22A41.18,41.18,0,0,1,87.31,47.4ZM37.15,17.94C31.87,22.58,28.44,30,26.48,36.72a53.1,53.1,0,0,0-10.07,4,1.47,1.47,0,1,0,1.39,2.59,48,48,0,0,1,7.8-3.28,80.52,80.52,0,0,0,0,35.36C17.11,72.66,6.38,66.67,6.38,57.75A41.2,41.2,0,0,1,37.15,17.94ZM7.7,68.1c4.63,5.28,12.06,8.71,18.78,10.67,2,6.72,5.4,14.15,10.67,18.79A41.31,41.31,0,0,1,7.7,68.1ZM57.86,97.56c5.27-4.64,8.71-12.07,10.67-18.8,8.37-2.43,14.87-6.21,18.8-10.71A41.3,41.3,0,0,1,57.86,97.56Z"/></g></svg>