<svg xmlns="http://www.w3.org/2000/svg" viewBox="0 0 95 118.75"><defs><style>.cls-1{fill:#5d9ba8;}</style></defs><title>EU</title><g id="Capa_2" data-name="Capa 2"><path class="cls-1" d="M47.51,15.31A44.07,44.07,0,0,0,16.34,90.54,44.07,44.07,0,1,0,47.51,15.31Zm-17.69,66a80.91,80.91,0,0,0,27.76,1.35,1.47,1.47,0,1,0-.36-2.92A76.88,76.88,0,0,1,28.86,78a76.8,76.8,0,0,1,0-37.27,77,77,0,0,1,37.28,0c3.93,14.9,3,34.63-4.1,48.08C52.22,107.5,36.87,102.92,29.82,81.28ZM69.41,41.69c8.49,2.77,19.23,8.76,19.23,17.69,0,3.71-2,7.38-5.8,10.61a39.52,39.52,0,0,1-13.43,7.06A80.52,80.52,0,0,0,69.41,41.69ZM87.31,49c-4.63-5.27-12.06-8.71-18.78-10.67a58.09,58.09,0,0,0-2-5.86,1.47,1.47,0,0,0-2.72,1.13c.52,1.24,1,2.53,1.42,3.85a80.52,80.52,0,0,0-35.36,0C32.59,29,38.58,18.24,47.51,18.24A41.19,41.19,0,0,1,87.31,49ZM37.15,19.57c-5.28,4.64-8.71,12.08-10.67,18.78a53.1,53.1,0,0,0-10.07,4A1.47,1.47,0,1,0,17.8,45a49,49,0,0,1,7.8-3.29,80.56,80.56,0,0,0,0,35.37C17.11,74.29,6.38,68.3,6.38,59.38A41.2,41.2,0,0,1,37.15,19.57ZM7.7,69.73C12.33,75,19.76,78.44,26.48,80.4c2,6.72,5.4,14.15,10.67,18.78A41.28,41.28,0,0,1,7.7,69.73ZM57.86,99.18c5.27-4.63,8.71-12.06,10.67-18.79C76.9,78,83.4,74.18,87.33,69.68A41.27,41.27,0,0,1,57.86,99.18Z"/></g></svg>